# xmcd CD database file
#
# Track frame offsets:
#	150
#	55735
#	67637
#	75775
#	91645
#	98247
#	107897
#	114720
#	130937
#	139875
#	149712
#	156750
#	169617
#
# Disc length: 2495 seconds
#
# Revision: 1
# Processed by: cddbd v1.5.2PL0 Copyright (c) Steve Scherf et al.
# Submitted via: CDex 1.70beta3
#
DISCID=a409bd0d
DTITLE=天野正道 - ジャイアントロボ THE ANIMATION OST 4
DYEAR=1994
DGENRE=Anime
TTITLE0=弦楽四重奏−豪傑たちの黄昏−
TTITLE1=戴宗と楊志（国際警察機構）
TTITLE2=梁山泊実験室
TTITLE3=地下道の戦い
TTITLE4=幻夜の野望（BF団のテーマ）
TTITLE5=レクイエム
TTITLE6=男たちの熱き戦い（アルベルトのテーマ）
TTITLE7=壮絶！！上海エキスパート戦
TTITLE8=G・Rの復活
TTITLE9=銀鈴のテーマ
TTITLE10=悲劇の飛行船 グレタ・ガルボ
TTITLE11=エンディング・テーマ
TTITLE12=大作のテーマ（予告）
EXTD=YEAR: 1994
EXTT0=
EXTT1=
EXTT2=
EXTT3=
EXTT4=
EXTT5=
EXTT6=
EXTT7=
EXTT8=
EXTT9=
EXTT10=
EXTT11=
EXTT12=
PLAYORDER=
